<?xml version="1.0" encoding="utf-8"?>
<!-- Generated by IcoMoon.io -->
<!DOCTYPE svg PUBLIC "-//W3C//DTD SVG 1.1//EN" "http://www.w3.org/Graphics/SVG/1.1/DTD/svg11.dtd">
<svg version="1.1" xmlns="http://www.w3.org/2000/svg" xmlns:xlink="http://www.w3.org/1999/xlink" width="1040" height="1024" viewBox="0 0 1040 1024"><g id="icomoon-ignore">
</g>
<path d="M514 55.2v39.2l-12.4-10c-54.6-42.8-114.2-65-175.6-65-30.2 0-50.2 3.2-78 13-111.8 39.2-205.4 162.6-236.6 312.6-8.4 40.4-10.4 59.6-10.4 106 0 25.6 1.2 52 2.8 63 14.6 104.8 54.8 189.6 119.4 252 67.4 64.8 142.6 90 227.8 76 59.8-9.6 110.8-28.6 152.6-56.6 9-6 17-10.2 17.6-9 0.6 1 0.8 7 0.4 13.2l-0.6 11.4 56.6 0.6 56.4 0.4v-290.2l27 1.2 0.6 160.4 0.4 160.4-55 1.2-0.6 81.4-0.4 81.6h252v-164h-54v-322l57.6 0.4 57.4 0.6 8 70 46.6 0.6 46.4 0.4v-256l-617 1-0.6 127.4-0.4 127.6h93.2l3.6-29.6c1.8-16.2 4-32.4 4.6-36l1-6.4h13.8c16.4 0 16-1 9 26.2-24.2 95.2-99 155.2-181.8 145.8-84.4-9.8-153.8-72-175.2-157.6-7.2-28.8-8.6-44.4-7.8-82.6 1.4-53 9.2-88.2 28.6-129.4 22.8-48 56-83 97.4-102.2 48.8-22.8 101-17.4 154.6 16 19.4 12 49.4 39.4 65.2 59l10.2 12.8 51.2-0.4 51.4-0.6 0.6-141.6 0.4-141.4h-108v39.2zM602 158v114h-76l-5.4-6.6c-14-16.4-47-47.6-60.6-57.2-23.2-16.4-42-24.8-74-33.4-20-5.4-56.4-4.8-77 1-33 9.6-54.4 22-78.8 46-19.2 19-24 24.6-35.6 42.6-18.4 28.6-35 68.8-41.8 100.4-12 55.8-12.2 120-0.6 168.4 4.8 20.6 17.4 53.6 24.2 63.2 2 2.8 3.6 5.8 3.6 6.6 0 4 21.8 32 35.4 45.6 21.2 21.2 36 31.8 59.6 43.4 30.6 14.8 54.2 20.6 86 20.8 19.2 0 29.4-1 39-3.6 54.8-15.2 94.8-49.6 125.4-108.2 13-25.2 24.8-68.2 27.4-101.6l1.4-15.4h-65.6l-3.4 29.4c-1.8 16.4-4 32.6-4.6 36l-1 6.6h-57.6v-198h580v198.2l-58.8-1.2-1.4-7c-0.6-3.8-2.4-17.4-3.6-30-1.4-12.6-3-25.4-3.4-28.6l-1.2-5.4h-147.6v380h54l-0.4 53.4-0.6 53.6-213 1v-107.8l53-1.2 0.6-189.6 0.4-189.4h-64v288h-75.8l-0.6-23-0.6-22.8-8 7c-41.2 36.6-100.6 64.4-166 78-30.8 6.4-76.2 7.8-100 3-28.6-5.6-68.2-22.6-95-40.8-19.8-13.4-51-42.6-63.8-59.4-2.8-3.8-5.6-7.4-6.2-8-2.4-2.2-20-27.8-20-29 0-0.8-1.8-4-4-7-15.4-21.6-36.6-75.6-46.2-117-13.8-59.6-13.8-144.8 0-206 10.6-46.8 26.6-88 53.6-137 6.2-11 28.6-43.8 36.2-52.4 67.2-78.4 133.8-112 215.4-109 32.2 1.2 54 6 86.8 19.2 35.4 14.2 60.8 31 93.2 61.2 7.8 7.2 14.6 13 15.6 13 0.8 0 1.4-22 1.4-49v-49h70v114z"></path>
</svg>
